solid Corner
  facet normal -0.000000e+00 -1.000000e+00 -0.000000e+00
    outer loop
      vertex 0.000000e+00 0.000000e+00 0.000000e+00
      vertex 1.000000e+01 0.000000e+00 0.000000e+00
      vertex 0.000000e+00 0.000000e+00 3.000000e+01
    endloop
  endfacet
  facet normal -1.000000e+00 0.000000e+00 0.000000e+00
    outer loop
      vertex 0.000000e+00 2.000000e+01 0.000000e+00
      vertex 0.000000e+00 0.000000e+00 0.000000e+00
      vertex 0.000000e+00 0.000000e+00 3.000000e+01
    endloop
  endfacet
  facet normal -1.000000e+00 0.000000e+00 0.000000e+00
    outer loop
      vertex 0.000000e+00 0.000000e+00 3.000000e+01
      vertex 0.000000e+00 2.000000e+01 1.072884e-05
      vertex 0.000000e+00 2.000000e+01 0.000000e+00
    endloop
  endfacet
  facet normal 0.000000e+00 0.000000e+00 -1.000000e+00
    outer loop
      vertex 1.000000e+01 0.000000e+00 0.000000e+00
      vertex 0.000000e+00 0.000000e+00 0.000000e+00
      vertex 0.000000e+00 2.000000e+01 0.000000e+00
    endloop
  endfacet
  facet normal 0.000000e+00 -1.000000e+00 0.000000e+00
    outer loop
      vertex 2.000000e+01 0.000000e+00 0.000000e+00
      vertex 2.000000e+01 0.000000e+00 -1.000000e+01
      vertex 5.000000e+01 0.000000e+00 -9.536743e-07
    endloop
  endfacet
  facet normal 3.178915e-08 -0.000000e+00 1.000000e+00
    outer loop
      vertex 2.000000e+01 2.000000e+01 0.000000e+00
      vertex 2.000000e+01 0.000000e+00 0.000000e+00
      vertex 5.000000e+01 0.000000e+00 -9.536743e-07
    endloop
  endfacet
  facet normal 0.000000e+00 -4.605813e-08 1.000000e+00
    outer loop
      vertex 5.000000e+01 0.000000e+00 -9.536743e-07
      vertex 2.000003e+01 2.000000e+01 0.000000e+00
      vertex 2.000000e+01 2.000000e+01 0.000000e+00
    endloop
  endfacet
  facet normal -1.000000e+00 0.000000e+00 -0.000000e+00
    outer loop
      vertex 2.000000e+01 0.000000e+00 -1.000000e+01
      vertex 2.000000e+01 0.000000e+00 0.000000e+00
      vertex 2.000000e+01 2.000000e+01 0.000000e+00
    endloop
  endfacet
endsolid Corner
